<?xml version="1.0"?>
<svg xmlns="http://www.w3.org/2000/svg" xmlns:xlink="http://www.w3.org/1999/xlink" version="1.1" viewBox="0 0 192 192" width="50px" height="50px"><g fill="none" fill-rule="nonzero" stroke="none" stroke-width="1" stroke-linecap="butt" stroke-linejoin="miter" stroke-miterlimit="10" stroke-dasharray="" stroke-dashoffset="0" font-family="none" font-weight="none" font-size="none" text-anchor="none" style="mix-blend-mode: normal"><path d="M0,192v-192h192v192z" fill="none"/><g fill="#e67e22"><g id="surface1"><path d="M119.685,30.72c-1.8,-0.045 -3.375,0.645 -4.185,2.64c-1.38,3.345 2.055,6.615 3.285,8.325c0.855,1.185 1.965,2.52 2.58,3.855c0.405,0.885 0.465,1.77 0.81,2.7c0.855,2.295 2.22,4.905 3.315,7.035c0.555,1.08 1.17,2.205 1.875,3.165c0.435,0.585 1.17,0.855 1.29,1.755c-0.72,1.02 -0.765,2.595 -1.17,3.885c-1.83,5.775 -1.14,12.96 1.515,17.22c0.825,1.32 2.76,4.125 5.4,3.06c2.31,-0.945 1.8,-3.87 2.46,-6.465c0.15,-0.57 0.06,-1.005 0.36,-1.395v0.12c0.69,1.41 1.395,2.82 2.1,4.215c1.575,2.52 4.35,5.145 6.69,6.93c1.215,0.915 2.175,2.505 3.75,3.045v-0.12h-0.12c-0.3,-0.48 -0.78,-0.675 -1.17,-1.05c-0.915,-0.9 -1.935,-2.025 -2.685,-3.06c-2.145,-2.895 -4.035,-6.075 -5.745,-9.375c-0.825,-1.575 -1.545,-3.315 -2.235,-4.92c-0.27,-0.63 -0.27,-1.56 -0.825,-1.89c-0.765,1.185 -1.875,2.13 -2.46,3.525c-0.93,2.22 -1.065,4.935 -1.41,7.74c-0.21,0.075 -0.12,0.015 -0.225,0.12c-1.635,-0.405 -2.22,-2.085 -2.82,-3.525c-1.53,-3.645 -1.83,-9.525 -0.465,-13.71c0.345,-1.095 1.92,-4.515 1.29,-5.52c-0.3,-1.005 -1.32,-1.575 -1.875,-2.34c-0.705,-0.945 -1.395,-2.19 -1.875,-3.285c-1.26,-2.85 -2.445,-6.15 -3.78,-9.03c-0.63,-1.38 -1.695,-2.76 -2.58,-3.99c-0.975,-1.35 -2.055,-2.34 -2.82,-3.99c-0.255,-0.57 -0.63,-1.5 -0.225,-2.1c0.12,-0.405 0.3,-0.57 0.705,-0.705c0.675,-0.525 2.565,0.165 3.285,0.465c1.875,0.78 3.45,1.53 5.04,2.58c0.765,0.51 1.53,1.485 2.46,1.77h1.05c1.665,0.375 3.51,0.105 5.04,0.585c2.73,0.825 5.175,2.115 7.38,3.51c6.765,4.26 12.3,10.335 16.065,17.58c0.615,1.17 0.885,2.295 1.425,3.525c1.065,2.49 2.43,5.07 3.51,7.5c1.065,2.445 2.115,4.89 3.63,6.915c0.795,1.065 3.885,1.65 5.28,2.235c0.975,0.42 2.595,0.855 3.51,1.41c1.785,1.065 3.495,2.34 5.16,3.525c0.84,0.585 3.39,1.86 3.525,2.925c-4.125,-0.105 -7.275,0.27 -9.96,1.41c-0.765,0.33 -1.995,0.33 -2.115,1.29c0.405,0.435 0.48,1.095 0.81,1.635c0.645,1.035 1.725,2.43 2.7,3.165c1.065,0.795 2.145,1.65 3.285,2.355c2.01,1.215 4.26,1.92 6.21,3.15c1.14,0.735 2.295,1.65 3.405,2.46c0.555,0.42 0.915,1.05 1.635,1.305v-0.12c-0.375,-0.48 -0.465,-1.14 -0.81,-1.635l-1.545,-1.545c-1.485,-1.965 -3.375,-3.705 -5.385,-5.145c-1.605,-1.155 -5.19,-2.715 -5.85,-4.575l-0.12,-0.12c1.125,-0.12 2.46,-0.54 3.51,-0.825c1.77,-0.465 3.33,-0.345 5.145,-0.81c0.825,-0.24 1.65,-0.48 2.475,-0.705v-0.48c-0.915,-0.93 -1.575,-2.19 -2.58,-3.045c-2.625,-2.235 -5.49,-4.47 -8.445,-6.33c-1.635,-1.035 -3.66,-1.71 -5.385,-2.58c-0.585,-0.3 -1.605,-0.45 -1.995,-0.945c-0.915,-1.155 -1.41,-2.625 -2.115,-3.975c-1.47,-2.835 -2.91,-5.925 -4.215,-8.91c-0.885,-2.025 -1.47,-4.035 -2.58,-5.865c-5.325,-8.745 -11.055,-14.04 -19.935,-19.23c-1.89,-1.11 -4.155,-1.53 -6.555,-2.1c-1.305,-0.09 -2.58,-0.165 -3.885,-0.24c-0.78,-0.33 -1.605,-1.29 -2.34,-1.77c-1.845,-1.155 -5.475,-3.165 -8.475,-3.21zM132.39,43.44c-0.855,-0.015 -1.47,0.105 -2.115,0.24v0.12h0.12c0.405,0.84 1.14,1.38 1.65,2.1c0.39,0.825 0.765,1.65 1.155,2.475l0.12,-0.12c0.72,-0.51 1.065,-1.335 1.065,-2.58c-0.3,-0.3 -0.345,-0.69 -0.585,-1.05c-0.345,-0.495 -0.99,-0.765 -1.41,-1.185zM7.17,92.145c-1.155,0.045 -2.415,0.27 -3.78,0.705c-2.28,0.69 -3.405,2.055 -3.405,4.83v29.04h7.695v-28.335l10.665,24.225c1.32,3.015 3.12,4.095 6.645,4.095c3.54,0 5.265,-1.08 6.585,-4.095l10.665,-23.61v27.72h7.68v-29.04c0,-2.775 -1.11,-4.14 -3.405,-4.83c-5.46,-1.725 -9.135,-0.24 -10.785,3.495l-10.95,24.63l-10.59,-24.63c-1.2,-2.805 -3.6,-4.335 -7.02,-4.2zM100.785,92.16c-3.03,0 -12.465,0.36 -12.465,7.68v4.74c0,3.36 2.955,6.105 9.36,6.78c0.72,0.045 1.44,0.105 2.16,0.105c0,0 7.47,-0.15 7.68,-0.105c4.32,0 3.84,3.36 3.84,3.84v3.84c0,0.525 -0.12,3.84 -3.885,3.84h-19.155v3.84h19.23c2.52,0 4.965,-0.525 6.915,-1.44c3.24,-1.485 4.575,-3.495 4.575,-6.135v-5.49c0,-5.895 -7.32,-6.135 -11.52,-6.135h-7.68c-3.015,0 -3.48,-1.83 -3.84,-3.84v-3.84c0.36,-1.53 1.035,-3.6 3.705,-3.84h19.335v-3.84zM130.485,92.16c-5.67,0.78 -7.665,3.6 -7.665,7.68v19.2c0,3.735 2.085,5.985 6.375,7.155c1.44,0.405 2.745,0.57 3.975,0.57l8.55,-0.045h5.025l4.275,3.84h8.64l-5.94,-5.355c2.79,-1.155 3.66,-2.925 3.66,-6.24v-19.125c0,-4.08 -2.655,-6.9 -8.325,-7.68zM161.28,92.16v26.715c0,4.635 2.625,7.245 9.57,7.77c0.645,0.03 1.305,0.075 1.95,0.075h19.2v-3.84h-17.745c-3.96,0 -5.295,-1.665 -5.295,-4.035v-26.685zM135.06,96h9.885c2.61,0 4.365,2.1 4.755,3.84c0,0 0.06,17.88 0.06,19.2c0,1.32 -0.735,1.92 -0.735,1.92l-2.085,-1.92h-8.7l4.275,3.84h-7.455c-2.67,0 -4.17,-1.98 -4.56,-3.84v-18.81c0,-2.04 1.56,-4.23 4.56,-4.23zM53.76,103.68c0.15,0.15 0,16.365 0,16.68c0.06,3.36 4.32,6.3 10.995,6.36h12.045v0.255c0,0.72 0.525,3.12 -3.84,3.585c-0.045,0 -19.155,0 -19.2,0v3.84h20.025c3.39,-0.105 10.74,-0.87 10.695,-6.75c0,-0.105 0.03,-23.97 0,-23.97h-7.68v19.2c-0.12,0 -9.51,0.03 -11.4,0c-3.705,-0.06 -4.02,-2.175 -3.96,-2.985v-16.215z"/></g></g></g></svg>
